inDegrees=no
num_controls=7
num_derivatives=13
num_iterations=97
num_multipliers=7
num_parameters=0
num_slacks=7
num_states=26
objective=5.626555
objective_accelerations=0.547611
objective_balance=0.015582
objective_effort=0.439145
objective_height=4.571320
objective_ligament=0.052898
solver_duration=834.239947
status=Solve_Succeeded
success=true
DataType=double
version=3
OpenSimVersion=4.4-2022-07-23-0e9fedc
endheader
time	/jointset/ground_pelvis/pelvis_tilt/value	/jointset/ground_pelvis/pelvis_tx/value	/jointset/ground_pelvis/pelvis_ty/value	/jointset/hip_r/hip_flexion_r/value	/jointset/hip_r/hip_adduction_r/value	/jointset/hip_r/hip_rotation_r/value	/jointset/back/lumbar_extension/value	/jointset/patellofemoral_r/patellar_flexion_r/value	/jointset/knee_r/knee_flexion_r/value	/jointset/knee_r/knee_adduction_r/value	/jointset/knee_r/knee_rotation_r/value	/jointset/ankle_r/ankle_angle_r/value	/jointset/subtalar_r/subtalar_angle_r/value	/jointset/ground_pelvis/pelvis_tilt/speed	/jointset/ground_pelvis/pelvis_tx/speed	/jointset/ground_pelvis/pelvis_ty/speed	/jointset/hip_r/hip_flexion_r/speed	/jointset/hip_r/hip_adduction_r/speed	/jointset/hip_r/hip_rotation_r/speed	/jointset/back/lumbar_extension/speed	/jointset/patellofemoral_r/patellar_flexion_r/speed	/jointset/knee_r/knee_flexion_r/speed	/jointset/knee_r/knee_adduction_r/speed	/jointset/knee_r/knee_rotation_r/speed	/jointset/ankle_r/ankle_angle_r/speed	/jointset/subtalar_r/subtalar_angle_r/speed	/forceset/tau_hip_flexion_r	/forceset/tau_hip_adduction_r	/forceset/tau_hip_rotation_r	/forceset/tau_knee_flexion_r	/forceset/tau_ankle_angle_r	/forceset/tau_subtalar_angle_r	/forceset/tau_lumbar_extension	lambda_cid13_p0	lambda_cid14_p0	lambda_cid14_p1	lambda_cid14_p2	lambda_cid14_p3	lambda_cid14_p4	lambda_cid14_p5	/jointset/ground_pelvis/pelvis_tilt/accel	/jointset/ground_pelvis/pelvis_tx/accel	/jointset/ground_pelvis/pelvis_ty/accel	/jointset/hip_r/hip_flexion_r/accel	/jointset/hip_r/hip_adduction_r/accel	/jointset/hip_r/hip_rotation_r/accel	/jointset/back/lumbar_extension/accel	/jointset/patellofemoral_r/patellar_flexion_r/accel	/jointset/knee_r/knee_flexion_r/accel	/jointset/knee_r/knee_adduction_r/accel	/jointset/knee_r/knee_rotation_r/accel	/jointset/ankle_r/ankle_angle_r/accel	/jointset/subtalar_r/subtalar_angle_r/accel	gamma_cid13_p0	gamma_cid14_p0	gamma_cid14_p1	gamma_cid14_p2	gamma_cid14_p3	gamma_cid14_p4	gamma_cid14_p5
1.5	-0.07297241855154712	0.04730242335717599	0.8271214549594685	0.7559346221486283	-0.2540110136393162	-0.0600264012679255	-0.6199926441289161	0.9107361196794916	0.9107361196794904	0.0718445985201781	0.1744848800342393	0.3013750833034247	0.09194146744224149	0.4255576402976216	0.2075143120073711	0.4566754900283039	-1.870423097426263	0.02378624942394674	-0.4633771668768538	0.8028191511419814	-1.87756592147205	-1.877565921472046	0.1498140199242368	0.0006828106943717834	-0.5180469595996723	-0.1323334878631829	-0.1506816897280183	-0.003933725371156879	0.03615008234617603	-0.299478842812181	-0.002332907349802147	-0.01369029601775203	0.2069039344977994	-10.27138363217042	-43.46755863078174	-12.07779225770419	0.6583667459501873	-1.760218016289842	-634.1326432828259	61.74877987293033	0.0150374042370676	0.4924536957214157	-0.4390270591283027	-0.9006073214431338	0.1330409520530393	-0.243562072142792	1.693652603912112	-1.384363606368679	-1.384363606368684	0.4901074803748154	-0.02654185744587867	-0.5749165263690922	0.1151364545950511	1.370570670747668e-07	6.75134589228079e-08	-1.362208390105714e-06	6.155915959449913e-07	1.04671931912843e-07	2.079983664378068e-07	-9.731743106869035e-07
1.51	-0.06871636174792083	0.04940195304799833	0.8316653130273057	0.7371873327946526	-0.2537672750134204	-0.06467222038039792	-0.6118812825365464	0.8918936891200809	0.8918936891200764	0.07336856759281976	0.174491762619922	0.2961663576418529	0.09062282628811683	0.4255946420544184	0.2123641019279399	0.4519973706599637	-1.878776876429505	0.02495093107385832	-0.4657313078503156	0.8193339806145111	-1.890646361152356	-1.890646361152365	0.1550018793355285	0.000689186147947721	-0.5236183636241145	-0.1313874582277766	-0.1437952823555791	-0.005193411797105681	0.03557399290898464	-0.2958178636626049	-0.0002045751205436961	-0.01450547414431875	0.2005219509809995	-11.26472350854714	-42.54755107301981	-12.18044968785103	0.5716031181576012	-1.876689674545661	-629.6702008033402	61.27127539829624	-0.01082302269140203	0.4771303925178632	-0.4969718061727571	-0.7640689997224195	0.106617283981195	-0.2228443671757329	1.612520111475021	-1.228839286994582	-1.228839286996446	0.536269054880006	0.01365629170276767	-0.5362426831056977	0.0853144665126442	1.440383357525499e-07	7.801866620468198e-08	-1.31014018134201e-06	6.98214930789198e-07	9.296552299830766e-08	2.208740090076771e-07	-9.499872386281061e-07
1.52	-0.06446170584353549	0.05154915838848538	0.8361594364153617	0.7183642444886588	-0.2535122024685183	-0.06933988175406111	-0.603608348250939	0.8729286631362315	0.8729286631362244	0.07494504403615004	0.1744985947691528	0.2909043198715153	0.08931384108004606	0.4252774604475017	0.2170494419403129	0.4467285540721607	-1.885582887831046	0.02605303322463053	-0.4677456191128933	0.8351336897890833	-1.902085006357982	-1.902085006358003	0.1603154940817732	0.0006727233992528244	-0.5287093813535167	-0.1304022986524019	-0.136908874983154	-0.006453098223109712	0.03499790347210251	-0.2921568845130307	0.001923757108693835	-0.01532065227098195	0.1941399674641975	-12.2592205360676	-41.62896374387851	-12.27865769367259	0.4787631306131393	-2.004383282910696	-625.2317267208061	60.8494105356098	-0.05579926850551745	0.4595637140821362	-0.5571665030208505	-0.5910538011028189	0.1205250522251836	-0.1755961299658561	1.55062854432067	-1.056004711432609	-1.056004711432661	0.5152585473653734	-0.03110949790022098	-0.478839267361225	0.122962442588795	1.519686803466604e-07	8.747050664386111e-08	-1.296692834693402e-06	7.732800754633285e-07	8.595956399853198e-08	2.354921993688929e-07	-9.548960002672919e-07
1.53	-0.06021198947057759	0.05374233059522512	0.8405979776904778	0.6994808635584705	-0.2532464795131779	-0.07402597016785158	-0.5951811615774681	0.8538575249320947	0.8538575249320935	0.0765753761950589	0.1745051467952243	0.2855937793470769	0.08801482496027965	0.4246063663915502	0.22155054102472	0.4408867257215309	-1.89082712805692	0.02708040389186159	-0.4694222980833125	0.8501667324860368	-1.911857694041655	-1.911857694041686	0.1657625174276902	0.0006337389017828073	-0.5333150512384669	-0.1293937383283436	-0.1299858035112199	-0.007891424556764696	0.03440982412644377	-0.2886363038853826	0.004046972752718861	-0.01616439588649329	0.1877159859122947	-13.25133439304228	-40.72861770104927	-12.39091810801994	0.3863965677556587	-2.07777729428488	-620.9883904215021	60.45579204992119	-0.08167304083337086	0.4402308219855952	-0.6115851297241615	-0.4511719656568224	0.0921986930660308	-0.1560253750182192	1.459105269744585	-0.8951928711821823	-0.8951928711836752	0.5609890003089403	0.009249466547353919	-0.438840713422895	0.09077360959053454	1.609074181018685e-07	9.58031448126769e-08	-1.324280154042081e-06	8.403146430817534e-07	8.394783303318843e-08	2.519618467584134e-07	-9.896565852105842e-07
1.54	-0.05597076575150806	0.05597948335608239	0.8449753218563593	0.6805530276595572	-0.2529708117273431	-0.07872728969023914	-0.5866077518495554	0.8346972014362495	0.8346972014362497	0.07826049154180963	0.174511217454762	0.2802397001509184	0.08672608860020928	0.4235789296678375	0.2258455527638209	0.434489132225249	-1.89447388157588	0.02804199932286106	-0.47079184083126	0.8643783006774431	-1.91992206469923	-1.919922064699271	0.1712721316577708	0.0005764500930168354	-0.5374171156978597	-0.1283463467132381	-0.1230627320393499	-0.009329750890444887	0.03382174478089086	-0.2851157232577486	0.006170188396734861	-0.01700813950204682	0.1812920043603417	-14.23753017517427	-39.82995343225392	-12.49881993091874	0.2880194511808987	-2.161790888250595	-616.772603022178	60.12210265149993	-0.1270678020576071	0.4183462450207554	-0.6683195321512706	-0.2715564597198281	0.107370004978922	-0.114168885471367	1.38633364321135	-0.7143413062127755	-0.714341306212775	0.5277767241980305	-0.03477036015962395	-0.378118182249887	0.1307287007982764	1.704264130459935e-07	1.047420594793559e-07	-1.362754327368188e-06	9.090435706653121e-07	8.232908245482988e-08	2.719363489150385e-07	-1.033800301536051e-06
1.55	-0.05174158192718133	0.05825850461984517	0.84928598956769	0.6615966857589032	-0.2526859378840494	-0.08344075518534802	-0.5778964886117137	0.8154648055740422	0.8154648055740242	0.0800011560154069	0.1745166597379316	0.2748471179127537	0.08544790844050316	0.4221959423866106	0.2299186679645099	0.4275581881855738	-1.896519483401316	0.02892013040441616	-0.4718532222097141	0.877725570805308	-1.92626105184312	-1.926261051843139	0.1768657637457441	0.0005084478872155895	-0.5410106004775552	-0.1272834454476704	-0.1161202024441614	-0.01082047177783641	0.03322232172176931	-0.2818202306810613	0.008418332199492387	-0.01799436355082044	0.1748670889660725	-15.21522954705201	-38.91913639655021	-12.6763924892834	0.2120808622327783	-2.228219016184873	-612.831960880874	59.70734699294056	-0.1531883581809162	0.3958054566197436	-0.7183532602770311	-0.1297961792229616	0.07617625640348459	-0.09467958156757587	1.286607284957759	-0.5493062883966165	-0.5493062883933686	0.5757258597329159	0.00681189636185044	-0.3366121256157152	0.09490011602356729	1.806139651860443e-07	1.143795101109641e-07	-1.413772049842202e-06	9.797246956000032e-07	8.116311362669314e-08	2.959490533033273e-07	-1.088755017062717e-06
1.56	-0.04752808280906146	0.06057705929542054	0.8535247735545433	0.6426281410129475	-0.252392654410604	-0.08816334585775072	-0.5690562159551155	0.7961778940664155	0.796177894066373	0.08179787069164476	0.1745213474084407	0.2694212711268348	0.08418052314877073	0.4204419884243281	0.2337522351263399	0.4201123873297953	-1.896914450637453	0.02972392535235432	-0.4726168762895668	0.8901801844284966	-1.930825193783792	-1.930825193783789	0.1824821721791487	0.0004255275675008685	-0.5440700252487072	-0.1261873731186004	-0.1091776728489861	-0.01231119266521725	0.03262289866255697	-0.2785247381043782	0.01066647600225243	-0.01898058759957524	0.1684421735717921	-16.18232439209779	-38.00917364441718	-12.84894319768199	0.1294337427108604	-2.307294551061805	-608.9088042239806	59.35686547205872	-0.2012611382685483	0.3704366372487956	-0.7712908953719615	0.05857045814018007	0.09250277825563349	-0.05462342575088946	1.207802342276157	-0.3593722655691961	-0.3593722655691957	0.532331993284216	-0.03775398294257338	-0.2713061805413132	0.1373629134987962	1.902444198305789e-07	1.235154118343512e-07	-1.467424835126116e-06	1.04493482833197e-06	8.039906157548021e-08	3.212169091032649e-07	-1.145664278265565e-06
1.57	-0.04333395259795489	0.06293269550938617	0.8576866156149829	0.6236638653382474	-0.2520917693542589	-0.09289212091839016	-0.5600960314454824	0.7768542257394089	0.7768542257393856	0.08365093773947783	0.1745251798787074	0.2639674856552354	0.08292417716580308	0.4183192620661742	0.2373289132819504	0.4121773832029437	-1.895654990611623	0.03043974014913366	-0.4730926302428221	0.9016962418521657	-1.933601087323613	-1.933601087323621	0.188126994844962	0.0003388039395568588	-0.5465940558089926	-0.1250755200860044	-0.1022382158547788	-0.01392974644176788	0.03201256112475623	-0.2754718100505005	0.01299048479728341	-0.02006206343635186	0.1620429646679962	-17.13718126909631	-37.10414558851631	-13.06778327262613	0.05880198447071931	-2.353216019338186	-605.3250539225087	58.9842607674078	-0.2274867866182376	0.3443852438788549	-0.8163287035677226	0.202502863886014	0.05915996897620117	-0.03696625999573881	1.099436095765314	-0.1906311186784467	-0.1906311186800133	0.579730687054362	0.005727172325104238	-0.2289549714399955	0.09893105083156205	1.991785026057182e-07	1.320243774224619e-07	-1.524371448922406e-06	1.103306220810531e-06	8.013740549542201e-08	3.480537041677636e-07	-1.20501672156364e-06
1.58	-0.03916299133082453	0.06532271887274056	0.8617667629277083	0.6047207580816274	-0.2517841183222233	-0.09762423649453819	-0.5510255006309412	0.7575120118329128	0.7575120118329018	0.08556028767081973	0.1745281168576563	0.2584912591824977	0.0816791166237005	0.4158081996268093	0.2406296650040969	0.4037734377869934	-1.892680767022533	0.03107712048937987	-0.473284979391384	0.9122494454099309	-1.934534309683028	-1.934534309683046	0.1937387488637429	0.0002464293134301335	-0.5485582254759958	-0.1239302849457451	-0.09529875886059071	-0.01554830021827366	0.03140222358675115	-0.2724188819966258	0.01531449359232938	-0.02114353927305416	0.1556437557641766	-18.07868111626737	-36.1987927070504	-13.28112569215254	-0.01892192754395338	-2.414944648552845	-601.7431408966485	58.6785132367332	-0.2789283545105681	0.3152513505558454	-0.8650791531917014	0.4015231707925037	0.07681588694914297	0.002057535188006853	1.015231569095518	0.009161970512161551	0.009161970512161515	0.5257182638776664	-0.03888418257941636	-0.1593340018850849	0.1440393350315319	2.081427583209637e-07	1.401215973175476e-07	-1.588102994082015e-06	1.158475122824819e-06	8.071678965806119e-08	3.759951678999843e-07	-1.268431984801994e-06
